<svg xmlns="http://www.w3.org/2000/svg" width="8.283" height="9.055" viewBox="0 0 8.283 9.055">
  <g id="curved_arrow" data-name="curved arrow" transform="translate(-7.478 -6.828)">
    <path id="Path_4" data-name="Path 4" d="M15.689,8.076l-.887.5-.887.5a.143.143,0,0,1-.214-.119V8.323a2.877,2.877,0,0,0-2.576,2.816v1.219a3.587,3.587,0,0,1-3.482,3.524.154.154,0,0,1-.165-.15v-.389a.151.151,0,0,1,.145-.15,2.886,2.886,0,0,0,2.79-2.835V11.14A3.579,3.579,0,0,1,13.7,7.63V6.966a.143.143,0,0,1,.214-.119l.887.5.887.5a.136.136,0,0,1,0,.239Z" transform="translate(0 0)" fill="#1f233c" fill-rule="evenodd"/>
  </g>
</svg>
