<svg xmlns="http://www.w3.org/2000/svg" width="16" height="16" viewBox="0 0 16 16">
  <g>
    <path fill="rgb(0,0,0)" fill-rule="evenodd" d="M.00833333 5.5096304C.13333333 5.13482561.4 5.0015617.7875 5.00572618c1.5625.0124935 3.125.0041645 4.6875.0041645.4625 0 .76666667.40395627.625.82040604-.0875.26236335-.32083333.42477876-.625.42477876H1.26666667v8.48724623h13.475V6.25507548H10.5375c-.4625 0-.7625-.40812077-.625-.82457053.0875-.25819886.32083333-.42477877.60833333-.42477877H13.1125c.70416667 0 1.40416667.0124935 2.10833333-.0041645.3875-.00832899.65416667.12909943.77916667.50390422v9.99479438c-.07916667.25403436-.24583333.42061426-.5.49973972H.5c-.25416667-.07912546-.42083333-.24570536-.5-.49973972.00833333-3.32743363.00833333-6.65903175.00833333-9.99062988z"/>
    <path fill="rgb(0,0,0)" fill-rule="evenodd" d="M8.13333333.0124935c.14583334.10411243.3125.18740239.4375.30817282.78333334.77043207 1.55416667 1.54919313 2.33333334 2.3237897.17083333.1707444.2625.36231129.2125.60385215-.04583334.23737637-.19166667.40395628-.425.47475274-.24583334.07912545-.4625.01249349-.64583334-.16657991-.41666666-.41228527-.83333333-.82873503-1.25-1.2493493-.04583333-.04580947-.0875-.09994794-.12916666-.14992191-.0125.008329-.02916667.01249349-.04166667.02082248v10.59031755c0 .09578344-.00416667.19989589-.03333333.29151483-.08333334.28318584-.36666667.46642374-.6625.43310776C7.6375 13.45965643 7.4 13.21811556 7.375 12.92243623c-.00416667-.06246746-.00416667-.12493493-.00416667-.1874024V2.1447163c-.05833333.05830297-.1.09161895-.1375.12909943C6.80416667 2.69859448 6.37916667 3.12753774 5.95 3.5523165c-.175.1749089-.3875.24154087-.62916667.1707444-.23333333-.07079645-.37916666-.22904737-.4375-.46642373-.05-.21238938.00416667-.40812077.15833334-.56220719C5.88333333 1.84903696 6.725 1.00780843 7.57083333.16657991 7.65.09161895 7.76666667.05413847 7.86666667 0c.1.0124935.18333333.0124935.26666666.0124935z"/>
  </g>
</svg>
