<svg xmlns="http://www.w3.org/2000/svg" width="18" height="18" viewBox="0 0 18 18">
  <path fill="rgb(0,0,0)" fill-rule="evenodd" d="M18.00000072 8.4749998v1.05468746c-.00937802.05156136-.02813405.10312557-.02813405.15468693-.05626236.8109369-.206302 1.6031255-.50169084 2.35781111-1.25188906 3.20156467-3.55874032 5.1562498-6.93462009 5.82187535-.33289804.06562614-.67048652.09375-1.00338599.13593863h-1.0549622c-.11721803-.01406192-.22974704-.02812671-.34696506-.04218864-1.88486638-.20156192-3.5634279-.90000053-4.99817678-2.14687434C1.50976799 14.4.50169299 12.63749835.13597298 10.51406223.0797081 10.18593723.0468872 9.85781225 0 9.52499948V8.47031202c.0140663-.1124997.02813225-.2296872.04219856-.34218834.19223749-1.79062407.82990382-3.40312372 1.97395143-4.79531174C3.44152158 1.598437 5.26543372.52031277 7.48788715.1359372 7.8160976.07968735 8.14899708.046875 8.47720755 0h1.0549622c.05157622.00937486.103151.02812528.15472865.02812528 1.48163466.10781193 2.86012047.54843734 4.10731909 1.34999938 2.23183 1.44375008 3.60562752 3.47343836 4.07918719 6.10312461.05157478.33281278.0843964.66562555.12659604.99375054zm-9.5790584-7.25624985c-1.46288006.5812497-2.0911698 1.82343786-2.6678819 3.1171881.6001557.35156248 2.1099244.72187468 2.6678819.67499968V1.21874995zm1.16280365 3.79687557V1.24218745c.35165407.09375.64235533.26718735.91430058.48281262.72206273.5812497 1.17686923 1.34999938 1.5613442 2.17499963.05626522.12187528.10315243.24843835.15472722.3703122.00937801.0234375.01406559.046875.0234436.06562614-.41729516.29531192-2.0536599.7171869-2.6538156.67968748zM4.6980982 3.78749999c.36572037-.66562483.71737444-1.30781216 1.06434022-1.94062463-.68924255.30937527-1.34097447.72656247-1.95050819 1.26562495.30945587.23906277.60484471.4640622.88616797.67499968zm9.49466055-.67499968c-.60953371-.53906248-1.26126706-.95624968-1.95050961-1.26562495.3469665.63281247.70330814 1.27968759 1.06434022 1.94062463.27663568-.21093749.57202452-.4359369.8861694-.67499968zM1.16749122 8.4281248h.20161514c.18652361 0 .37275317-.00029326.55883607-.00058651h.00203042c.55698593-.00087834 1.1126576-.00175524 1.67096495.0052743.18285983.00468778.22505803-.05156279.22974704-.22500086.0375092-1.05468745.19692613-2.09531155.47824939-3.11249959.03750991-.13124942.0328209-.21093749-.10315172-.28124998-.13597262-.0703125-.25787965-.15937471-.37978668-.2531247-.27663424-.20624971-.5438919-.4171872-.82521516-.63281248-1.0830941 1.30312437-1.69262782 2.78906239-1.83328945 4.49999982zm12.49075222-3.49218736c0-.00468779-.00468758.00937557 0 .01874971.30476686 1.09218831.4782501 2.20312634.52044973 3.33750044.00468758.12187528.0609528.140625.16410524.140625.51870406-.00312424 1.03741098-.00208426 1.5561179-.00104285l.00053515.00000143c.25944217.0005207.51888721.00104141.77832939.00104141.0468872 0 .08908398-.00468778.13597119-.00937414.07970882-1.20000167-.95649735-3.721876-1.81922314-4.46718818-.4454285.3234372-.88616654.6468744-1.33628546.97968718zM9.58374597 6.18281268v2.2312502h3.4555886c-.04688721-1.00312467-.17348325-1.9781255-.43605334-2.95781267-.97056365.4171872-1.96926206.65624998-3.01953526.72656247zm-4.6043245 2.23593799h3.43683185V6.18281268c-1.0502732-.0656247-2.05365919-.31406163-3.01484698-.72187468-.22505874.70781276-.4829384 2.51250018-.42198488 2.95781267zm10.02448544 5.63905955c-.45011892-.33281134-.89554741-.66093632-1.33159788-.98437496.10784-.52499769.23912648-1.05468745.31414487-1.59374922.0843964-.57187412.12659604-1.14843745.17817082-1.72499936.0140656-.1359372.04219964-.18749999.19223928-.18749999.57605103.00702953 1.14948068.00615263 1.72422674.0052743h.00151388c.19194451-.00029326.38403497-.00058651.5764202-.00058651.05157765 0 .10315243.00468778.16879567.00937414-.13597405 1.6968755-.74550777 3.1828128-1.82391358 4.4765616zM1.18155753 9.58593783h2.6209947c.03282162.3703122.04219892.73593805.09846342 1.08750053.12659532.74999997.27194596 1.49531287.41729588 2.24062363.0234436.12656306.00937801.18749999-.10315172.26718806-.36103137.24843692-.70799643.51562498-1.0596505.77812382-.0468872.03281307-.09377441.0703125-.13597333.10781479-1.0877831-1.19531245-1.78171395-3.00468838-1.83797845-4.48125083zm4.21984881 2.96249974c-.26725694-.97968789-.39385298-1.95937506-.43605118-2.96249974h3.45558716v2.2312502c-1.04089518.07500028-2.0442826.30937456-3.01953598.73124954zm4.17765062-2.96249974h3.45558717c-.0375092.99375054-.16879281 1.96874993-.4313629 2.95312417-.97056508-.40781305-1.97395107-.65156147-3.02422427-.72187397v-2.2312502zm-2.78978894 5.95312405c-.4360519-.57187555-.76426165-1.20468802-1.0362076-1.89375107.85334777-.3890619 1.73482673-.60468576 2.6631929-.67968747v3.79687485c-.10784001-.03749943-.21099244-.0703125-.30945444-.11250114-.54389191-.24843692-.96118778-.6468744-1.31753086-1.11093517zm2.78978894-2.56874932v3.77343735c.92836617-.140625 2.39124766-1.860938 2.64443902-3.1078118-.83459246-.3796892-1.71138384-.60000227-2.64443902-.66562555zM4.69809821 14.2125c.36103208.66093633.71737444 1.30781073 1.06434022 1.9406232-.69393084-.30937384-1.34097447-.72656247-1.95050819-1.26562495.31414416-.23906134.60953372-.46406076.88616797-.67499825zm9.48997012.67499825c-.60484328.53906248-1.25657663.95625111-1.95050676 1.27031417.35165407-.6375017.70330814-1.27968688 1.06434022-1.94062607.27663282.20625114.57202166.43125056.88616654.6703119z"/>
</svg>
