<svg xmlns="http://www.w3.org/2000/svg" width="30" height="30" viewBox="0 0 30 30">
  <g>
    <path fill="rgb(31,35,60)" fill-rule="evenodd" d="M1.7026816.00780843c.25774537.14836023.42176516.34357106.3436605.66371682-.06248373.24986986-.28117678.37480479-.64826868.38261322h-.35928144v.35918792c-.00781046.36699636-.12496746.58563249-.37490237.64809995C.34366051 2.13951067.14839885 1.97553358 0 1.71785528V.0234253C.57016402.00780843 1.13251757.00780843 1.7026816.00780843z"/>
    <path fill="rgb(31,35,60)" fill-rule="evenodd" d="M29.99218953 1.71004685c-.14839885.2576783-.3436605.42165539-.6638896.34357106-.24993492-.06246747-.37490238-.2811036-.37490238-.64809995v-.35918792h-.35928143c-.3670919-.00780844-.58578496-.12493493-.64826868-.38261323C27.86774278.34357106 28.03176256.14836023 28.28950794 0h1.69487113c.00781046.57782405.00781046 1.14003123.00781046 1.71004685z"/>
    <path fill="rgb(31,35,60)" fill-rule="evenodd" d="M0 28.29776158c.14058839-.24986986.32803957-.42946382.63264775-.34357105.52330122.1405518.37490237.60124935.42176516.98386257.3670919.07808433.8747722-.10931807.99973965.46069755.06248373.29672046-.11715699.46850599-.35147097.60124935H.00781047C0 29.42998438 0 28.85996877 0 28.29776158z"/>
    <path fill="rgb(31,35,60)" fill-rule="evenodd" d="M28.2973184 29.99219157c-.25774537-.14836023-.42176516-.34357106-.3436605-.66371682.06248373-.24986986.28117678-.37480479.64826868-.38261322h.35928144v-.35918792c.00781046-.36699636.12496746-.58563249.37490237-.64809995.3202291-.07808433.51549076.08589276.66388961.34357106v1.69442998c-.57016402.01561687-1.14032804.01561687-1.7026816.01561687z"/>
    <path fill="rgb(31,35,60)" fill-rule="evenodd" d="M16.1129914.00780843c.24993492.14836023.42176517.34357106.33585005.66371682-.0702942.24986986-.28117678.37480479-.64826868.37480479h-1.60114554c-.3670919 0-.58578495-.12493493-.64826868-.3748048-.08591512-.32014575.08591513-.51535658.33585004-.6637168h2.22598282z"/>
    <path fill="rgb(31,35,60)" fill-rule="evenodd" d="M0 13.8912025c.14839885-.24986986.3436605-.42165539.66388961-.33576262.24993491.06246746.37490237.28110359.37490237.64809994v1.60072879c0 .36699636-.12496746.58563248-.37490237.64809995C.34366051 16.53826132.14839885 16.36647579 0 16.11660593V13.8912025z"/>
    <path fill="rgb(31,35,60)" fill-rule="evenodd" d="M29.99218953 16.11660593c-.24212444.3513795-.49986982.45288912-.77323613.28891203-.21088259-.12493493-.26555585-.32014576-.26555585-.54659032V14.1957314c0-.36699636.12496746-.58563248.37490237-.64809995.3202291-.08589276.51549076.08589277.66388961.33576263v2.23321186z"/>
    <path fill="rgb(31,35,60)" fill-rule="evenodd" d="M13.8870086 29.99219157c-.24993492-.14836023-.42176517-.34357106-.33585005-.66371682.06248373-.24986986.28117678-.37480479.64826868-.37480479h1.60114554c.3670919 0 .58578495.12493493.64826868.3748048.08591512.32014575-.08591513.51535658-.33585004.6637168h-2.22598282z"/>
    <path fill="rgb(31,35,60)" fill-rule="evenodd" d="M11.3095548.00780843c.25774538.14836023.42176517.34357106.3436605.66371682-.06248372.24986986-.28117677.37480479-.64826867.37480479H9.40380109c-.3670919 0-.58578495-.12493493-.64826868-.3748048-.08591512-.32014575.08591513-.51535658.33585004-.6637168h2.21817235z"/>
    <path fill="rgb(31,35,60)" fill-rule="evenodd" d="M20.91642801.00780843c.33585004.234253.4373861.45288912.31241864.71837585-.10934652.24986986-.3202291.32014576-.57016402.32014576h-1.66362926c-.3670919 0-.58578495-.12493493-.64826868-.3748048-.08591512-.32014575.08591513-.51535658.3436605-.6637168h2.22598282z"/>
    <path fill="rgb(31,35,60)" fill-rule="evenodd" d="M0 9.08901614c.23431398-.33576263.45300703-.43727226.71856287-.31233733.24993492.10931807.32022911.32014576.32022911.57001562v1.66319625c0 .36699636-.12496746.58563249-.37490237.64809995C.34366051 11.74388339.14839885 11.57209787 0 11.31441957V9.08901614z"/>
    <path fill="rgb(31,35,60)" fill-rule="evenodd" d="M29.99218953 11.31441957c-.14839885.2576783-.3436605.4216554-.6638896.34357106-.24993492-.06246746-.37490238-.2811036-.37490238-.64809995V9.4091619c0-.37480478.117157-.58563248.37490237-.64809994.3202291-.08589277.51549076.08589276.66388961.33576262v2.217595z"/>
    <path fill="rgb(31,35,60)" fill-rule="evenodd" d="M0 18.69338886c.14839885-.2576783.3436605-.42165539.66388961-.34357106.24993491.06246747.37490237.2811036.37490237.64809995v1.60072879c0 .36699635-.11715699.58563248-.37490237.64809995C.34366051 21.33263925.14839885 21.16085372 0 20.91098386v-2.217595z"/>
    <path fill="rgb(31,35,60)" fill-rule="evenodd" d="M29.99218953 20.9187923c-.23431398.33576262-.45300703.43727225-.71856287.31233732-.24993491-.10931806-.3202291-.32014576-.3202291-.57001562v-1.66319625c0-.36699635.12496745-.58563248.37490236-.64809995.3202291-.08589276.51549076.08589277.66388961.34357106v2.22540344z"/>
    <path fill="rgb(31,35,60)" fill-rule="evenodd" d="M9.08357199 29.99219157c-.33585004-.234253-.4373861-.45288912-.31241864-.71837585.10934652-.24986986.3202291-.32014576.57016402-.32014576h1.66362926c.3670919 0 .58578495.12493493.64826868.3748048.08591512.32014575-.08591513.51535658-.3436605.6637168H9.08357198z"/>
    <path fill="rgb(31,35,60)" fill-rule="evenodd" d="M18.6904452 29.99219157c-.25774538-.14836023-.42176517-.34357106-.3436605-.66371682.06248372-.24986986.28117677-.37480479.64826867-.37480479h1.60114554c.3670919 0 .58578495.1171265.64826868.3748048.08591512.32014575-.08591513.51535658-.33585004.6637168H18.6904452z"/>
    <path fill="rgb(31,35,60)" fill-rule="evenodd" d="M6.5061182.00780843c.25774538.14836023.42176516.34357106.3436605.66371682-.06248372.24986986-.28117677.37480479-.64826868.37480479H4.6003645c-.3670919 0-.58578495-.1171265-.64826868-.3748048-.08591513-.32014575.08591512-.51535658.33585004-.6637168H6.5061182z"/>
    <path fill="rgb(31,35,60)" fill-rule="evenodd" d="M25.71986462.00780843c.24993491.15616867.42957563.3513795.33585004.66371682-.08591513.28110359-.31241864.37480479-.59359542.37480479h-1.66362926c-.3670919 0-.58578496-.12493493-.64826868-.3748048-.07810466-.32014575.08591512-.51535658.3436605-.6637168h2.22598282z"/>
    <path fill="rgb(31,35,60)" fill-rule="evenodd" d="M0 4.28682978c.15620932-.24986986.35147097-.42946382.66388961-.33576263.28117678.08589277.37490237.31233733.37490237.59344092v1.66319625c0 .36699636-.12496746.58563248-.37490237.64809995C.34366051 6.9338886.14839885 6.7699115 0 6.5122332V4.28682978z"/>
    <path fill="rgb(31,35,60)" fill-rule="evenodd" d="M29.99218953 6.51223321c-.14839885.2576783-.3436605.42165539-.6638896.34357106-.24993492-.06246747-.37490238-.2811036-.37490238-.64809995V4.60697553c0-.37480479.117157-.58563248.37490237-.64809994.3202291-.08589277.51549076.08589276.66388961.33576262v2.217595z"/>
    <path fill="rgb(31,35,60)" fill-rule="evenodd" d="M0 23.49557522c.14839885-.2576783.3436605-.42165539.66388961-.34357106.24993491.06246747.37490237.2811036.37490237.64809995v1.60072879c0 .37480479-.11715699.58563248-.37490237.64809995C.34366051 26.1348256.14839885 25.96304008 0 25.71317022v-2.217595z"/>
    <path fill="rgb(31,35,60)" fill-rule="evenodd" d="M29.99218953 25.72097866c-.14839885.23425299-.33585004.42165538-.64045821.34357105-.28898724-.0702759-.39833377-.28891202-.39833377-.57001561v-1.68662155c0-.36699636.12496746-.58563249.37490237-.64809995.3202291-.07808433.51549076.08589276.66388961.34357105v2.217595z"/>
    <path fill="rgb(31,35,60)" fill-rule="evenodd" d="M4.28013538 29.99219157c-.33585004-.234253-.42957563-.45288912-.31241864-.71837585.10934652-.24986986.3202291-.32014576.57016402-.32014576h1.66362926c.3670919 0 .58578496.12493493.64826868.3748048.07810466.32014575-.08591512.51535658-.3436605.6637168H4.28013538z"/>
    <path fill="rgb(31,35,60)" fill-rule="evenodd" d="M23.4938818 29.99219157c-.25774538-.14836023-.42176516-.34357106-.3436605-.66371682.06248372-.24986986.28117677-.37480479.64826868-.37480479h1.60114553c.37490237 0 .58578495.1171265.64826868.3748048.08591513.32014575-.08591512.51535658-.33585004.6637168H23.4938818z"/>
    <path fill="rgb(31,35,60)" fill-rule="evenodd" d="M7.23245155 14.48462025V8.29254261c-.1171875-.0078125-.21862792-.015625-.32019042-.015625H3.36624062c-.09375 0-.19519043 0-.28894043-.0078125-.28894043-.02337646-.49987793-.2498169-.49206543-.52313232.0078125-.26550293.203125-.47631836.48425293-.49194336.2635498-.01171875.5270996-.0102539.79077148-.00878906.08789063.00048828.17578125.00097656.26367188.00097656.23425293 0 .46862793-.00048828.70300293-.00097656.70288086-.00146485 1.40576172-.00292969 2.10876465.00878906.24206542 0 .32019042-.06243896.31237792-.3123169-.01171875-.89038085-.0102539-1.78521728-.00878906-2.67785644.00048828-.29718018.00097656-.59411621.00097656-.890625 0-.09368896 0-.19519043.0078125-.2888794.0234375-.28894042.24987793-.49975585.51550293-.49194335.27331543.0078125.49206543.21862793.49987793.51531982.0078125.58563232.0078125 1.17126465.0078125 1.75689697v2.3659668H14.472808V3.18585316c.0078125-.3513794.21862793-.58563232.51538086-.58563232.3046875 0 .51550293.23425293.52331543.58563232.00488281.5923462.00341797 1.18469238.0020752 1.77703857l-.00012208.03283692-.00012207.03234863-.00012207.03179932c-.00085449.3123169-.00170898.62469482-.00170898.93701172v1.24151611h6.20153809V3.20929066c0-.3513794.1796875-.57781982.46862792-.60125732.32019043-.03125.55456543.21081543.55456543.60125732.00512696.5828247.00354004 1.16229248.00183106 1.74279785l-.00012207.03082276c-.0008545.2958374-.00170899.59204101-.00170899.88903808 0 .0914917.00048829.18353272.00097657.27575684.00146484.27764892.00292968.55755615-.00878907.83300781-.0078125.21868897.0546875.28894043.28112793.28112793 1.20288086-.0078125 2.39782715-.0078125 3.60070801-.0078125h.26550293c.31237793.0234375.52331543.24206543.51550293.52319336-.0078125.2732544-.21862793.48406982-.51550293.49188232-.47644043.0078125-.95288086.0078125-1.43713379.0078125h-2.68676758v6.19989014h4.04577637c.3515625.015625.58581543.22650147.58581543.52319336 0 .3045044-.23425293.51538086-.59362793.51538086-.82763672.00518799-1.6517334.003479-2.47705078.00170898-.41308594-.00085449-.82641602-.00170898-1.24072266-.00170898h-.32800293v6.19989014h3.89746094c.09362793 0 .19519043 0 .28894043.0078125.25769043.03118896.44519043.24987793.44519043.49969482 0 .24987793-.1875.46850586-.43737793.50756836-.0817871.01165771-.15917969.0102539-.23876953.00878906-.02685547-.00048828-.053833-.00097656-.0814209-.00097656h-3.89746094v3.85736084c0 .09368896 0 .19519043-.0078125.28894043-.0234375.2966919-.23425293.49969482-.50769043.50750732-.28112792 0-.50769042-.21862793-.50769042-.53094482-.0078125-.92919922 0-1.85058594-.0078125-2.77978516V22.7537853h-6.2015381v4.06817627c-.015625.3513794-.23425292.58563232-.53100585.57000732-.2890625-.0078125-.49987793-.23425293-.50769043-.57000732-.00488281-.41955567-.00341797-.83911133-.0020752-1.25872803l.00012208-.02331543.00012207-.02288818.00012207-.02252197c.00085449-.22125245.00170898-.44244385.00170898-.6636963V22.7615978H8.24783241v4.07598877c0 .3357544-.21875.56219482-.50769043.56219482s-.49206543-.22644043-.50769043-.56219482v-4.07598877c-.125-.0078125-.24206542-.015625-.35144042-.015625H3.33499062c-.10925293 0-.21862793 0-.32019043-.0078125-.25769043-.03125-.44519043-.25769043-.44519043-.49975586 0-.24987793.1953125-.47631836.44519043-.49969482.17175293-.0166626.34313965-.0135498.52026367-.01037598.07080078.00128174.14196777.00256348.21386719.00256348h3.4522705v-6.19995118H3.1085502c-.31237793-.02337646-.53112793-.22644043-.53894043-.50750732-.0078125-.28894043.21875-.52319336.54675293-.52319336.60021972-.00518799 1.20056152-.003479 1.81262207-.00177002.30371094.00091553.60803222.00177002.913208.00177002.46862794-.015625.91381837-.015625 1.3902588-.015625zm14.4729004-6.19207764v6.17645264h-6.16247559V8.29254261h6.16247559zM8.2868949 14.46118275h6.16247559V8.30035511H8.28689491v6.16082764zm7.24816895 7.24621582v-6.16864014h6.17028809v6.16864014h-6.17028809zm-1.07788086 0v-6.16082764H8.29470741v6.16082764H14.457183z"/>
  </g>
</svg>
