<svg xmlns="http://www.w3.org/2000/svg" xmlns:xlink="http://www.w3.org/1999/xlink" width="30" height="30" viewBox="0 0 30 30">
  <defs>
    <path id="path-2" fill-rule="evenodd" d="M15.15953827 7.69802856c.08072662-.0269165.16529846-.04995727.24602508-.07302856h.33443833c.14608002.05380249.29984665.0845642.4305458.15756226.43823243.24212646.66503907.62643432.66503907 1.1298828.00255966.86840821.00170898 1.73510743.00085449 2.60238648-.00042725.4338379-.0008545.86782837-.0008545 1.3022461v.15759277c.00768662 0 .01153184.00384522.01921845.00384522.01537705-.04229737.0307541-.08840943.04228592-.13067627.27677918-1.0376587.55355835-2.07531739.83417893-3.11294556.16529846-.59954834.65350723-.98770142 1.24550628-.9838562.5689354.00384521 1.06867218.38815307 1.2185936.94540405.06150818.2229309.05766296.4458313-.0038414.66873169-.29600143 1.0991211-.58815765 2.19442749-.88031006 3.2935791-.00769043.0307312-.01537704.0614624-.00384521.09991455.02306366-.03845215.04997253-.07687378.07304-.11914062.26524354-.46118164.5343361-.92236328.79958344-1.38354492.26908875-.46118165.70732117-.69943238 1.16477585-.63793946.52664947.07299805.86493301.38430786 1.00716782.9300232.0038414.01153564.01537704.02307128.02306365.03460693v.34585571c-.11532592.24597168-.2191162.4996338-.34981918.73788452-.34597015.6149292-.69963455 1.22598267-1.05714035 1.83322144-.52280426.89544678-.66503525 1.8638916-.791893 2.89385986-.20941544 1.67486573-.92074585 2.55981446-1.20388031 2.83312989-.0110016.01391601-.02357102.027771-.03778077.04156494-.1755638.16625976-.36161804.31652832-.55890274.44799804-.24474334.17895508-.41304779.26763916-.50687408.28344727-.14664078.06713867-.29873276.12463379-.45650482.1716919-.30368805.0883789-.62659836.13830566-.93797303.20367431h-1.4684639c-.288311-.053833-.57662582-.09606934-.8572464-.16912842-.7534523-.1998291-1.40311431-.59179687-1.94129562-1.15289306-1.42233276-1.4911499-2.83698272-2.98614502-4.25547409-4.47729493-.16145324-.16906738-.26524353-.37280273-.3267517-.59570312v-.31512451c.01922225-.05761719.0384407-.11914063.05766296-.17675782.13454437-.40356445.49205017-.69946289.90721893-.71099853.8226471-.02307129 1.52612686.26135254 2.07584.88006592.38056946.43041992.74576568.8762207 1.11480331 1.31817627.08457184.09997558.17298508.17297363.30753327.12298584.13069915-.04992676.14992141-.15753174.14992141-.2843628-.00384521-.32666015 0-.6533203-.00384521-.97998047 0-.09997558-.01153183-.19989013-.0384407-.29595947-.48051835-1.8024292-.9648819-3.60101318-1.44924546-5.40344238-.05766296-.2229004-.0730362-.44580078-.01921844-.66870117.13838958-.56112671.62274933-.96463013 1.17246246-.98001099.6073761-.01538086 1.11480331.34588623 1.283947.93386841.31137466 1.07992554.61890792 2.15600586.92644118 3.2359314.05766297.20370483.11916733.40737915.1768303.61105346.00768661 0 .01537704-.0038147.02306366-.0038147v-4.335083c0-.57263184.33059692-1.04534912.84955978-1.22979737zm.85339737 14.21963501c.99947738.01538086 1.87210083-.30358886 2.61017608-.9876709.02508927-.02282714.05093384-.04156494.07690049-.0560913l.01536178-.01312256c.44976425-.38427735.65734864-.69177246.83417893-1.51800537.1076355-.503479.15376663-.6994629.16529846-1.03381348.02306366-.63415527.11916733-1.24902344.31137466-1.852417.19989777-.62255859.5381813-1.17596435.86109162-1.73709106.30752945-.53036499.61506271-1.06069946.91875076-1.59490966.23449326-.41122437.05766296-.8762207-.37672806-1.0145874-.3267517-.10375977-.63428116.01538085-.81495666.31896972-.25371552.43045044-.4997406.86471558-.7496109 1.29516602-.34597397.5956726-.68810273 1.18753051-1.03023148 1.78323364-.01537704.03070068-.03075409.0614624-.04997253.0883789-.0691948.1114502-.16529847.16137696-.29215622.10760499-.12685776-.05383301-.16914368-.14990235-.13454438-.28057862.10379029-.38427734.20373917-.76861572.30752945-1.15292358.36135102-1.35662842.72654725-2.71710205 1.08405304-4.07373047.08456803-.32281494-.04997635-.6456604-.31906509-.83395386-.48051834-.3343811-1.09558487-.08840942-1.25703812.51113892-.36135101 1.33740234-.7188568 2.6786499-1.0763626 4.01608276-.08841325.33050537-.1768303.66101074-.26524354.9876709-.0345993.12298584-.11917114.18450928-.24602508.17681885-.11917115-.00769043-.19989777-.09994507-.20758438-.23446655v-4.55410767c0-.15371704.00085449-.3074646.00170898-.46118164.00170899-.3074646.00341415-.61489868-.00170898-.92236328-.00769043-.530365-.50358582-.90313721-1.01485825-.76477051-.36519241.09991455-.59584045.41119385-.59584045.818573v5.94918823c0 .01141357.0002365.02304077.00047302.03482056.00072098.0357666.00146866.07266235-.00431824.10739135-.01537704.11529541-.08457184.18444825-.19605255.1998291-.10379028.01538086-.18836212-.0269165-.23449326-.12683105-.01921844-.04223633-.03459548-.0883789-.04612731-.13449097l-.87646866-3.05529785c-.22296143-.78018188-.44207764-1.56033325-.66888047-2.3366394-.17298507-.59185791-.8264923-.82244873-1.2877922-.44580078-.30368805.24978637-.35366058.57263183-.2537117.93771362.44976425 1.66409302.8956871 3.32434082 1.34160995 4.98843384.05765915.22290039.13069916.44580078.1460762.67254638.01898575.26574707.01500702.53338624.01101685.80163575-.0016632.11193847-.00333023.22393798-.00333023.3359375 0 .32666015-.17298508.57263183-.46129608.6763916-.29215622.10375976-.56124878.02301025-.77267456-.2267456-.37672806-.44195557-.74576569-.89160157-1.12633515-1.32977296-.43823242-.50341797-1.00716781-.74554443-1.66836166-.74554443-.44592094 0-.7150116.46118164-.50742722.8493042.04228592.07305908.09994889.14221191.15760994.20373535 1.39927102 1.47192383 2.7946949 2.94769287 4.19781304 4.4196167.53049087.55725098 1.1801529.92236328 1.9336052 1.1029663.42162704.09991456.84579086.10089112 1.27043151.10186768.0980301.00024414.19608307.00042725.29413605.0018921z"/>
    <mask id="mask-3" x="0" y="0" maskContentUnits="userSpaceOnUse" maskUnits="userSpaceOnUse">
      <rect width="30" height="30" x="0" y="0" fill="black"/>
      <use fill="white" xlink:href="#path-2"/>
    </mask>
  </defs>
  <g>
    <g opacity="0">
      <path fill="rgb(66,97,255)" fill-rule="evenodd" d="M5 0h20c2.75957512 0 5 2.24042488 5 5v20c0 2.75957512-2.24042488 5-5 5H5c-2.75957512 0-5-2.24042488-5-5V5c0-2.75957512 2.24042488-5 5-5z"/>
    </g>
    <g transform="rotate(17.000006 15.00000381 15)">
      <use fill="rgb(31,35,60)" xlink:href="#path-2"/>
      <use fill-opacity="0" stroke="rgb(31,35,60)" stroke-linecap="butt" stroke-linejoin="miter" stroke-width="2" mask="url(#mask-3)" xlink:href="#path-2"/>
    </g>
  </g>
</svg>
