<svg xmlns="http://www.w3.org/2000/svg" width="16" height="15" viewBox="0 0 16 15">
  <path fill="rgb(191,196,211)" fill-rule="evenodd" d="M0 13.39091925V1.58603168c.00669497-.02007756.02008389-.04015308.02677783-.05353813C.2075318.58890515.91715461 0 1.86778202 0h12.27782386C15.20334768 0 16 .78966856 16 1.84033117v11.30967159c0 .20745592-.0334728.42829484-.10041841.62905824-.25439249.74951752-.9372385 1.21796545-1.76066864 1.21796545H4.71966527c-.31910712 0-.63821526.00074339-.95732238.00148678-.63821628.00148677-1.2764295.00297354-1.91464374-.00148678-.70292887-.00669252-1.24518869-.31453014-1.59330564-.92351082C.1205023 13.85267466.07364058 13.61175817 0 13.39091925zm12.09037493-8.9540489c0 .9636639-.78995734 1.74664199-1.75397366 1.73994947-.96401633-.00669253-1.74728075-.79636109-1.74058578-1.760025 0-.95697344.79665231-1.746642 1.75397367-1.73994948.96401837.00669253 1.74728074.79636109 1.74058577 1.760025zm-3.97656658 8.87374272h5.43598408l.0172206.00001021c.19612357.00018585.40778022.00038599.51834425-.21415661.10711134-.21414845-.01338994-.39483428-.13389121-.56213712l-1.82761629-2.6099242c-.0468607-.06692114-.1004184-.13384228-.16066905-.19407293-.2610895-.25429949-.65606612-.26768453-.93054556-.013383-.26778243.24760697-.51547995.5152915-.7765674.76959304-.28117237.27437705-.6159004.34798867-.9037657.17399535-.12719828-.07361365-.23430962-.1873804-.3280351-.3011451-.3882837-.49521802-.76987448-.99712652-1.15146321-1.49903503-.58912257-.76959303-1.17154812-1.53918607-1.76736361-2.3087791-.34811797-.4550629-.7297067-.41490981-.9907962.0869987 0 .00669251-.00669293.00669251-.00669293.013383l-2.9322188 5.8020631c-.04686172.09368917-.08702847.19407087-.10711236.28776005-.05355669.23422397.0669456.4416799.30125523.50860103.1205023.03346056.25439351.04015309.38158975.04015309 1.79414247.02007552 3.574895.02007552 5.3623435.02007552z"/>
</svg>
