<svg xmlns="http://www.w3.org/2000/svg" width="30" height="30" viewBox="0 0 30 30">
  <g>
    <g>
      <g opacity="0">
        <path fill="rgb(66,97,255)" fill-rule="evenodd" d="M5 0h20c2.75957512 0 5 2.24042488 5 5v20c0 2.75957512-2.24042488 5-5 5H5c-2.75957512 0-5-2.24042488-5-5V5c0-2.75957512 2.24042488-5 5-5z"/>
      </g>
    </g>
    <g>
      <path fill="rgb(31,35,60)" fill-rule="evenodd" d="M7.73137283 20.87469482v-10.8263855c.00683785-.02392578.02051545-.05126953.02393341-.0751953.12992478-.7039795.54021645-1.17218018 1.2069397-1.4182129.11282921-.04101562.23591614-.06152343.35216522-.09228515h10.83167649c.01709747.00683593.03077316.01708984.04787063.0205078.93341065.16744996 1.53517151.87142945 1.53517151 1.8078003.00341797 3.44818115.00341797 6.8963623-.00342178 10.34454346 0 .17428589-.02393341.35540771-.07180023.52627563-.21198273.78259278-.91973496 1.29864502-1.76766968 1.29864502h-8.50327683c-.17974472 0-.35949325.00054932-.53923797.00112915h-.00469971c-.44779968.0013733-.89559937.00274659-1.34340096-.00454712-.7727127-.0102539-1.42917823-.4887085-1.67877197-1.21661376-.03077316-.11618042-.05470657-.24264527-.08547783-.36566163zm13.17717362-4.76730346c.00342178-.05807495.00683975-.08200074.00683975-.10250855 0-.6343689.00038147-1.26873779.00075912-1.90325927.00075913-1.26937867.00151825-2.53927613-.00075912-3.81066895 0-.59805298-.42054749-1.0081482-1.02572632-1.0081482-1.14539718 0-2.29079056-.0003662-3.43618774-.00076293-2.29079056-.00076294-4.58158112-.00152588-6.87237168.00076294-.6085968 0-1.02230644.41351318-1.02230644 1.02182006-.00227928 1.69970704-.00152016 3.40093995-.00075912 5.10168458.00037956.8501892.00075912 1.70025634.00075912 2.54992675 0 .0307312.00683785.0649109.0136757.11276245.21198272-.17770385.40345191-.34173584.59834098-.50918579.50602531-.43060302 1.01205063-.86462402 1.52149582-1.29180908.47867203-.40325928 1.02230835-.40664673 1.50439834-.0102539.15385819.12646484.30772019.25631713.46157837.38275146.29745865.24606323.59492112.49212646.89580155.74502563.04444885-.04101562.07863998-.0751953.11624908-.109375.72826386-.72790527 1.45653153-1.45581054 2.1847992-2.18713378.47525406-.4784546.95050811-.95687867 1.42918014-1.43191529.52653885-.52627563 1.2445488-.48526 1.71638107.08886719.28720475.35198975.57440949.70739746.86161042 1.0593872.33507156.43060303.67697906.85095216 1.04624176 1.30203248zm-1.02914429 5.5328064h-5.14231491c-1.70954514 0-3.41909027-.00341797-5.13547325-.00341797-.42396736 0-.7624569-.15377808-.94708824-.54678345-.06496239-.1401062-.09915352-.30755615-.1025715-.46133423-.01025771-.4545288-.00683784-.91247559 0-1.36697388 0-.05126953.03419114-.12301636.07522012-.15719604.85819053-.73474121 1.71980285-1.46609497 2.58141327-2.19741822.18120956-.15377807.28036499-.1503601.4684143.00341797.51628113.42718506 1.0291481.85437012 1.54542923 1.28152466.28720475.2392273.46157837.22897339.72142792-.0307312 1.28557968-1.28497314 2.57115555-2.57333374 3.85673523-3.85827637.03077316-.02734375.05812454-.05810547.08889389-.08544922.15044022-.13668823.30772018-.13327026.43764496.02734375.84793472 1.03890992 1.69245148 2.07778931 2.53354645 3.1201172.03076934.03759765.05128479.09909057.05128479.14694213.00341797 1.04232788.00683975 2.08804321 0 3.1303711-.00341797.59802246-.42396546.99786376-1.03256226.99786376z"/>
      <path fill="rgb(31,35,60)" fill-rule="evenodd" d="M12.13174438 10.18499756c-1.0906906.00341797-1.98307418.8987732-1.97965621 1.98895264.00342178 1.09698486.88554382 1.9786682 1.98307418 1.98208618 1.09752655.00341797 1.9933281-.88851929 1.9933281-1.98550415 0-1.09359742-.90263748-1.9923706-1.99674607-1.98553467zm.00683594 3.14746094c-.63936996 0-1.15565109-.51602173-1.15907287-1.15509034-.00341797-.6390686.52654266-1.1687622 1.16249084-1.1687622.62911224.00341797 1.15223312.52285766 1.16249085 1.1585083.01025772.63223266-.52653885 1.16534424-1.16590882 1.16534424z"/>
    </g>
  </g>
</svg>
