<svg xmlns="http://www.w3.org/2000/svg" width="16" height="16" viewBox="0 0 16 16">
  <g>
    <path fill="rgb(31,35,60)" fill-rule="evenodd" d="M12.46948357 0c.24413145.05573618.49201878.09289364.72488263.1709243C15.19248826.8509057 16 3.13237342 14.86197183 4.89363678c-.13521127.20808174-.30046948.39758476-.4769953.5722248-1.28826291 1.28193219-2.58403756 2.56014863-3.87605634 3.83836507-.69483568.69112866-1.53239437 1.0292615-2.51643193.97724106-.8-.04458895-1.4910798-.35671157-2.06197183-.91407339-.25539906-.24895494-.25915493-.62796098-.0225352-.88434742.23286384-.2526707.62347417-.2786809.89014084-.03715745.30798122.27496516.64600939.4830469 1.0629108.54621458.5971831.09289364 1.1342723-.04830469 1.59248826-.44217371.16150234-.14119833.30798122-.29725964.46197183-.44588946 1.1943662-1.18160706 2.3887324-2.35949837 3.57934272-3.54110543.66478873-.65768695.79624413-1.58662332.33802817-2.35578263-.61220657-1.0292615-2.03943662-1.25592197-2.92957747-.44588946-.56713615.51648862-1.09671361 1.07385044-1.64131455 1.6089178-.2028169.20065025-.40187793.4013005-.60469483.59823501-.2741784.26010219-.66103287.26010219-.91643193.01114724-.2516432-.24895495-.25539906-.63910822.01502347-.9066419.74366198-.74314909 1.49107982-1.48258244 2.2460094-2.21086855.49577464-.47933117 1.10046948-.7431491 1.78779342-.82861124.03004695-.00371575.05633803-.01857873.0826291-.02601022C12.0713615 0 12.27042255 0 12.46948357 0z"/>
    <path fill="rgb(31,35,60)" fill-rule="evenodd" d="M0 11.74175569c.0488263-.21551324.09014085-.43474222.15399061-.64653971.15399061-.51277288.44319249-.9475151.82629108-1.32652114C2.16338029 8.59823502 3.342723 7.4277752 4.52957746 6.26103112c1.02910799-1.01068277 2.44131456-1.25592197 3.72957747-.63167673.30422535.14862982.57840376.37157455.83755869.59451927.26666666.23037622.25915492.62796099.01502347.88063168-.23286385.2452392-.61596244.27124942-.87887324.03715746-.31173709-.27868091-.65352113-.4904784-1.0741784-.55364608-.59342723-.08917789-1.1230047.05202044-1.5774648.43845797-.1314554.11147236-.25164319.2378077-.37558685.3604273-1.10422535 1.09242918-2.21220657 2.18485834-3.31267605 3.27728751-.66103287.65768695-.7887324 1.59033906-.32676057 2.35578263.61971831 1.02554575 2.04694836 1.25220623 2.92957747.43474222.63474178-.58337204 1.23192488-1.20390153 1.84413145-1.80956804.1915493-.18950302.40938967-.28239666.67981221-.204366.43568075.1226196.60469484.63910822.32676056.99210404-.01877934.02229447-.03755868.04830469-.0600939.06688342-.64600938.63539247-1.27323943 1.29307942-1.94178403 1.90246168C3.5943662 16 .68732394 15.13051556.11267606 12.85647933.06760563 12.68555503.03755869 12.510915 0 12.33627497v-.59451928z"/>
  </g>
</svg>
