<svg xmlns="http://www.w3.org/2000/svg" width="18.408" height="18.096" viewBox="0 0 18.408 18.096">
  <g>
    <path fill="rgb(255,255,255)" fill-rule="evenodd" d="M0 17.24899292v.28282166c.07543945.12374115.13305664.26869201.23730469.37121582.22277832.21565246.49243164.22979736.78356933.13787841 1.14318848-.36414337 2.28625489-.7212143 3.42944336-1.08889007.1258545-.04242707.21923828-.03181458.33435059.02828216 1.4666748.79192353 3.03759765 1.18080902 4.7055664 1.10656739 3.14892579-.13787842 5.62219239-1.50959778 7.39440918-4.06565857.85192872-1.22322846 1.31567383-2.59494782 1.47387696-4.06565094.4456787-4.14697266-2.15332031-8.13484955-6.16503906-9.46414185-.75488282-.2510147-1.52062989-.41364288-2.31506348-.46313476C9.83166504.02474976 9.7849121.01060486 9.73828125 0H8.65979004c-.35583496.04595947-.711792.07424164-1.06408692.14141083-2.91174316.54798126-5.08654785 2.11061096-6.5172119 4.6595993C.45654296 5.90757751.11865233 7.1025238.02880858 8.36464691.0251465 8.4141388.0107422 8.46717071 0 8.5166626v1.09596252c.04309082.30757904.0826416.61515045.13305664.9227295.16174316 1.0111084.49963379 1.95858764 1.00292969 2.85302734.06469726.1202011.07189941.2191925.02868652.34646606C.7800293 14.89444732.4025879 16.06111145.02514648 17.22424316.02160645 17.23484802.00720215 17.24192047 0 17.24899292zm4.07653809-1.67222595c-.72253418.26868438-1.4666748.47373962-2.24316407.71767425.16894532-.51615905.32714844-.99343109.48535157-1.47424316.1114502-.33939362.21569824-.68231964.33789062-1.02171326.10058594-.28282928.0682373-.5373764-.08984375-.79192352-.52490234-.84848023-.866333-1.76413727-1.02453613-2.7469635-.25524903-1.60151673-.0432129-3.13939667.70812988-4.58181763 1.13952637-2.188385 2.93688965-3.59191894 5.39221191-4.09394073 2.22875977-.45606232 4.29577637-.01060486 6.13989258 1.31868744 1.59240723 1.14898681 2.6204834 2.68333435 3.01599121 4.59242248.44934082 2.18838501.01794434 4.21414185-1.31933593 6.02777863-1.171875 1.58383941-2.73925782 2.59848022-4.69116211 2.9979782-1.88000489.3853531-3.67382813.12020112-5.34545899-.80606078-.46374511-.25807953-.866333-.32525635-1.3659668-.13787842z"/>
    <path fill="rgb(255,255,255)" fill-rule="evenodd" d="M6.50295554 9.05050736c0 .48434344-.4133987.88737374-.90588236.88030303-.48529411-.0070707-.8879085-.40656565-.8879085-.88383838 0-.48434344.4133987-.88737374.90588236-.88030303.48888889.0070707.89150327.40656566.8879085.88383838z"/>
    <path fill="rgb(255,255,255)" fill-rule="evenodd" d="M9.20981828 9.9308104c-.49248366.00353535-.90588235-.39949496-.90588235-.8838384 0-.47727272.40261438-.87676767.8879085-.88030302.49248366-.00353535.90588235.39949495.90588235.88383838 0 .47727273-.40261438.87676768-.8879085.88030303z"/>
    <path fill="rgb(255,255,255)" fill-rule="evenodd" d="M12.79021044 8.16666898c.49248366-.00353535.90588235.4030303.90228758.88737374-.00359477.47727272-.40620915.87676767-.89150327.87676767-.49248366.00353536-.90588235-.4030303-.90228758-.88737373.00359477-.47727273.40620915-.87323233.89150327-.87676768z"/>
  </g>
</svg>
