<svg xmlns="http://www.w3.org/2000/svg" width="30" height="30" viewBox="0 0 30 30">
  <g>
    <g>
      <g opacity="0">
        <path fill="rgb(66,97,255)" fill-rule="evenodd" d="M5 0h20c2.75957512 0 5 2.24042488 5 5v20c0 2.75957512-2.24042488 5-5 5H5c-2.75957512 0-5-2.24042488-5-5V5c0-2.75957512 2.24042488-5 5-5z"/>
      </g>
    </g>
    <g>
      <path fill="rgb(31,35,60)" fill-rule="evenodd" d="M19.10910797 7.83776855c-.25403213-.12002563-.54099274-.17282104-.80913925-.25442504h-.53628922c-.0188179.00961303-.03293228.02401733-.05175018.02401733-.5739212.07199097-1.049057.33602905-1.45362854.74887085-2.12634277 2.17941284-4.25739288 4.35882568-6.38373566 6.5430603-.07056427.07199097-.12701606.18240357-.15053749.28320313-.2681446 1.2241516-.52688217 2.45306396-.79032325 3.67718506-.0940857.42245483.15053749.6720581.56451606.58087158 1.20900536-.26882935 2.41330529-.5376587 3.61760903-.81130982.11760711-.02877807.23991775-.0960083.3245964-.18240356 2.10752487-2.14102173 4.21035004-4.28683472 6.31317139-6.4326477.48454285-.49923707.74798202-1.08972169.77621078-1.79537964.037632-.99371338-.53158569-1.96820069-1.42070007-2.38104249zm.17876434 3.49475098c.63508225-.60964966.61626435-1.79058838-.07056427-2.45785522-.73857498-.72006226-1.85349273-.57125855-2.37567138.02880859.81384277.80648804 1.62768936 1.61297607 2.44623565 2.42904663zm-8.5430107 3.8356018l5.55107497-5.6645813c.79032135.80648805 1.59005356 1.61776734 2.36156083 2.40023805-1.84879303 1.90579223-3.69758225 3.81158447-5.55578232 5.731781-.79502487-.83529663-1.5806427-1.65615845-2.35685349-2.46743774zm-.9314518 3.36990357c.18817329-.85446167.36693382-1.68496704.54099464-2.5010376l1.90994644 1.94900513c-.7997322.18240357-1.60887146.36483765-2.45094108.55203247z"/>
      <path fill="rgb(31,35,60)" fill-rule="evenodd" d="M14.70588235 23.5833435H8.19983397c-.24932796 0-.4045699-.11041111-.4469086-.3168319-.04704302-.21602176.07997311-.42244255.29166666-.47044738.06586022-.01440145.13172043-.01920194.19758065-.01920194h12.95564516c.06115591 0 .12231182 0 .18346774.01440145.19287634.03840387.32459677.21122128.31518817.40324061-.0094086.20162031-.15994624.36483675-.35752688.38403868-.05174731.00480049-.10349462.00480049-.15524194.00480049h-6.47782258z"/>
    </g>
  </g>
</svg>
