<svg xmlns="http://www.w3.org/2000/svg" xmlns:xlink="http://www.w3.org/1999/xlink" width="30.856" height="27.12" viewBox="0 0 30.856 27.12">
  <defs>
    <ellipse id="ellipse-4" cx="24.356" cy="6.5" rx="6.5" ry="6.5"/>
    <mask id="mask-5" x="0" y="0" maskContentUnits="userSpaceOnUse" maskUnits="userSpaceOnUse">
      <rect width="30.856" height="27.12" x="0" y="0" fill="black"/>
      <use fill="white" xlink:href="#ellipse-4"/>
    </mask>
  </defs>
  <g>
    <g>
      <path fill="rgb(31,35,60)" fill-rule="evenodd" d="M0 13.34918213v1.52313232c.06982422.50134278.10791016 1.0090332.203125 1.51043701.78686523 4.11242676 3.0270996 7.1904297 6.6953125 9.20855713 2.06262207 1.13604737 4.30285645 1.65008545 6.64465332 1.5041504 4.87390137-.3046875 8.5357666-2.6147461 10.92199707-6.8795166 1.14868164-2.05621339 1.65637207-4.30285645 1.51049805-6.64465333-.29833985-4.8930664-2.62109375-8.54858398-6.89221192-10.9284668-1.5802002-.88848876-3.30639648-1.35180663-5.12145996-1.47869872-.06347656-.00634766-.13330078-.03173829-.19677734-.0444336h-1.52307129c-.50134277.06347656-1.0090332.10791016-1.50402832.20306397-4.11242676.7869873-7.19042969 3.02722168-9.20861816 6.68908691-.88208008 1.59295654-1.35803223 3.30645752-1.48498536 5.121521-.00634765.06982422-.03173828.14599609-.04443359.2158203zm13.00354004-10.2050171c6.05444336.00634767 10.95373535 4.91210938 10.960083 10.96020509.00634766 6.06079101-4.91833495 10.97924804-10.97277831 10.97290039-6.0543213-.00634766-10.95373535-4.91210938-10.96008301-10.96020508-.00634766-6.05444336 4.91845703-10.97924805 10.97277832-10.9729004z"/>
      <path fill="rgb(31,35,60)" fill-rule="evenodd" d="M11.98186455 16.00196128c0-.40616841-.00634633-.81233682 0-1.21850523.00634633-.58386708.35539453-.9900355.93291063-1.03446016.67271106-.05711743 1.26291982-.25385526 1.67543133-.81233682.4950138-.66002366.58386243-1.38351114.21577524-2.12603776-.38077984-.76791214-1.02810559-1.16138779-1.88486024-1.12965588-1.04079825.03807829-1.80235795.76156576-1.9356309 1.79602593-.01269265.09519572-.01269265.18404506-.02538532.27924078-.05077064.57117432-.50136013.97099635-1.0534909.94561082-.55847712-.02538552-.98368128-.46328584-.96464229-1.03446016.03807799-1.44062857.64097941-2.5893236 1.84678226-3.36358213 1.3581148-.87580063 2.80507821-.92657168 4.20761732-.12692763 1.45330975.82502958 2.13236714 2.13873053 2.04986484 3.80148245-.07615597 1.62467363-1.21849551 3.0653022-2.79238555 3.5730127-.18404359.05711744-.2475069.13327402-.24116057.33001184.019039.45059308.00634633.89483977.00634633 1.34543285-.00634633.62194537-.43789682 1.06619207-1.02175925 1.05984569-.58386243 0-1.00272027-.4442467-1.0090666-1.07253845-.00634633-.39982203-.00634633-.80599044-.00634633-1.21215884z"/>
      <path fill="rgb(31,35,60)" fill-rule="evenodd" d="M13.03535546 19.06726348c.70444272.01903914 1.2565735.60925261 1.23118818 1.30735456-.02538533.69175557-.60924776 1.23754437-1.30099782 1.21215884-.70444271-.01903914-1.2565735-.6092526-1.23118817-1.30735456.02538532-.68540919.60924776-1.23119799 1.30099781-1.21215884z"/>
    </g>
    <g>
      <use fill="rgb(225,50,50)" xlink:href="#ellipse-4"/>
      <use fill-opacity="0" stroke="rgb(255,255,255)" stroke-linecap="butt" stroke-linejoin="miter" stroke-width="2" mask="url(#mask-5)" xlink:href="#ellipse-4"/>
    </g>
  </g>
</svg>
