<svg xmlns="http://www.w3.org/2000/svg" width="18.997" height="19.002" viewBox="0 0 18.997 19.002">
  <path fill="rgb(74,74,74)" fill-rule="evenodd" d="M13.07080078 11.20042038l-.53570557.59983063.65393067.67718887c.36889648-.14786911.80688476-.06827164 1.09979248.23505974l4.42602539 4.583292c.3861084.39979554.37493896 1.03782273-.0248413 1.4238968-.39978028.38607788-1.03778077.37493896-1.42388917-.02485276l-4.42602539-4.583292c-.2211914-.22906304-.31201172-.53633309-.27404785-.82961083l-.77093506-.79834938-.31030273.26356316c-2.81652832 2.02674102-6.8088379 1.78673172-9.35192871-.72002793-2.84387208-2.74676895-2.84387208-7.2002716 0-9.94704055 2.81652832-2.7734375 7.38311767-2.7734375 10.19958496 0 2.57043457 2.480093 2.81652832 6.3735733.73834228 9.12034225zm-9.57073974-.50668335c-2.05084229-2.0000763-2.05084229-5.28019905 0-7.28027534 2.05090332-2.0000744 5.41430664-2.0000744 7.46514892 0 2.05084229 2.00007629 2.05084229 5.28019905 0 7.28027534-2.05084228 2.00007439-5.4142456 2.00007439-7.46514892 0z"/>
</svg>
