<svg xmlns="http://www.w3.org/2000/svg" width="30" height="30" viewBox="0 0 30 30">
  <g>
    <g opacity="0">
      <path fill="rgb(255,255,255)" fill-rule="evenodd" d="M5 0h20c2.75957512 0 5 2.24042488 5 5v20c0 2.75957512-2.24042488 5-5 5H5c-2.75957512 0-5-2.24042488-5-5V5c0-2.75957512 2.24042488-5 5-5z"/>
    </g>
    <path fill="rgb(31,35,60)" fill-rule="evenodd" d="M13.96745116 21.2455596c.10954679.25807756.27271817.39323758.54424408.39063643.06896138-.0292722.13791924-.0585429.20643374-.07927084.05813191-.11229892.1326148-.21482924.17589466-.33335573.6299922-1.69849917 1.25653967-3.39553614 1.88159312-5.09608307.03550015-.09851508.0890022-.15461035.18209426-.19412535l4.40644546-1.8704142c.05861314-.02487965.12067451-.05122299.17478384-.08672276.20761185-.13400931.26254553-.37845804.15121686-.60239411-.07187314-.14056162-.19859035-.19942777-.33220404-.25536654-3.99196797-1.66833418-7.98200556-3.3416982-11.97397352-5.01003237-.13511614-.05947832-.28191552-.08896686-.42631381-.1319733l-.2068771.0878136c-.1988886.19289952-.20661296.40477733-.09706617.6628549 1.7741903 4.17016758 3.5464348 8.34533839 5.31372862 12.51843333zm.48498558-.50629598c-.01484013-.00619948-.03163447-.00742532-.04648651-.01365289L9.33983765 8.79052764c3.82028212 1.5993813 7.66035153 3.20703941 11.49847865 4.81969927l-.12067802.05122448c-1.37916783.58541858-2.75833565 1.17083717-4.13900591 1.75271621-.16205344.0687872-.26021875.17304863-.32297702.34154972-.58849773 1.61411565-1.18343667 3.222644-1.77688508 4.8346838-.01752068.04499945-.0187023.09973942-.02633353.1488625z"/>
  </g>
</svg>
