<svg xmlns="http://www.w3.org/2000/svg" width="16.9" height="16.1" viewBox="0 0 16.9 16.1">
  <path fill="rgb(66,97,255)" fill-rule="evenodd" d="M4.4505338 8.03904762c-.48576512-.0744762-.9113879-.14019048-1.33701067-.20152381-.23131672-.03504762-.46725978-.05695238-.69857651-.1007619-.24519573-.04819048-.39786477-.20152381-.45800712-.42933334C1.35551601 5.1344762.75409253 2.96590477.15729537.79295238.0925267.55638095.1064057.32857143.3330961.16209524.5505338 0 .77259786.01314286 1.01779359.12704762c2.48434164 1.196 4.96868328 2.3832381 7.44839858 3.58361905 2.64626335 1.2792381 5.28327402 2.5672381 7.9341637 3.83771428.28683274.13580953.49964413.53009524.35622776.75790476-.08790036.14457143-.2405694.276-.39786477.3504762-1.62384342.78857142-3.25231317 1.564-4.88078292 2.33942857L9.3405694 12.02133333c-2.6925267 1.2792381-5.38505339 2.56285715-8.07758008 3.84209524-.15266904.07009524-.3099644.14019048-.47188612.184C.58754448 16.1.37935943 16.0824762.22206406 15.92914286.06014235 15.77580952 0 15.60057143.06476868 15.3815238c.45338079-1.58590476.90213523-3.17619048 1.35551602-4.76209524.15266904-.5432381.32384341-1.07771428.47651245-1.62095238.15266904-.5432381.2544484-.62647619.84199289-.69657143.53202847-.06133333 1.06405694-.12704762 1.5960854-.1927619.01850534-.00438096.03701068-.02190476.11565837-.07009524z"/>
</svg>
