<svg xmlns="http://www.w3.org/2000/svg" width="15.75" height="16.1" viewBox="0 0 15.75 16.1">
  <path fill="rgb(191,196,211)" fill-rule="evenodd" d="M8.36936532 0H7.3847338c-.2871842.041938-.57847001.0754879-.8656542.12581403C4.85751394.42357286 3.43390289 1.19104047 2.2564472 2.4198236 1.04206935 3.68215665.3159031 5.20450585.06974523 6.95751411.04512794 7.1546258.0246148 7.3517324 0 7.54884156v1.00651221c.04102631.2977614.06974523.59971301.12307894.89747185.32410887 1.84527239 1.1815573 3.38859315 2.54773302 4.62995719 1.18155731 1.073612 2.5682487 1.71526558 4.13545184 1.94592462.18872004.02516178.38154671.04613079.57436838.07129257h.9846315c.29128583-.03774267.57847002-.06709979.8656542-.12161869 2.359013-.45292998 4.16006913-1.73623202 5.41137167-3.82055413.64000948-1.06522388.98873314-2.23110001 1.08309566-3.48085472.00410163-.041938.01641153-.07968068.02461479-.12161869v-1.0065122c-.03692468-.2977614-.06974273-.59132746-.1189773-.88489353-.32410387-1.85365793-1.18155481-3.40536425-2.56003792-4.6551164C11.9468628.98973598 10.63402079.36066585 9.15707353.10484502 8.89860575.05871296 8.63193473.0335499 8.36936532 0zM4.58263965 7.42302754c-.7220621-.00419534-1.30053462-.60810113-1.296433-1.3504044.00820577-.74230326.59077741-1.32943538 1.31694615-1.32943538.73026537.00419278 1.31284201.6122939 1.30463375 1.3587925-.00820326.73391516-.6030848 1.32524005-1.3251469 1.32104728zm7.88525532-1.34201628c0-.74230327-.58257665-1.33362816-1.30874038-1.33362816-.72616373 0-1.30874038.59552023-1.31284201 1.33362816 0 .74230327.5907799 1.34621161 1.32104527 1.34621161.72206711-.00419533 1.30463875-.60390834 1.30053712-1.34621161zM2.84722711 9.39830672h5.02982245c.47480746 0 .94961491.000686 1.42432721.00136944 1.18651783.00171243 2.3724397.0034223 3.55626817-.00556477.47590423-.00419278.68514243.3732493.54155034.7674676-.85745094 2.35691404-2.49440183 3.74086833-4.93956907 4.0428225-2.71594492.33550407-5.31701165-1.44266596-6.125228-4.11831296-.11897732-.39002297.10256577-.6877818.5128289-.6877818z"/>
</svg>
