<svg xmlns="http://www.w3.org/2000/svg" width="30" height="30" viewBox="0 0 30 30">
  <g>
    <g opacity="0">
      <path fill="rgb(66,97,255)" fill-rule="evenodd" d="M5 0h20c2.75957512 0 5 2.24042488 5 5v20c0 2.75957512-2.24042488 5-5 5H5c-2.75957512 0-5-2.24042488-5-5V5c0-2.75957512 2.24042488-5 5-5z"/>
    </g>
    <path fill="rgb(31,35,60)" fill-rule="evenodd" d="M15.02360153 6.93939209h-.4868164c-.26369095.09588623-.54766465.15841675-.78701401.2876587-.49493027.27096557-.81947327.7045288-.97768784 1.25897216-.00811386.03753662-.02434158.07504272-.0405693.12924194h-.17849732c-.33130645 0-.6626091-.00045776-.99391556-.00091552-.6626091-.00094605-1.3252182-.00186158-1.98782539.00091552-.8640976.00418091-1.54563713.55444336-1.73630714 1.39239502-.03245354.15423584-.04462433.32098389-.04462433.47940064-.00152207 1.3210144-.00133133 2.64144897-.0011406 3.96173095.00031662 2.2005005.00063324 4.4005127-.00697326 6.60211182-.00405693 1.05053711.7302227 1.76342773 1.488842 1.86346436.0121708.0041809.0243416.01669311.03651048.02502441h9.33873367c.11359024-.09170532.23934936-.17092896.34077072-.27514648.86409378-.87545777 1.72007751-1.75506592 2.58011627-2.63052369.15010452-.15426635.2150116-.3210144.2150116-.54196167-.00405502-3.0140686-.00405502-6.03231811-.00405502-9.04638671 0-.92129517-.59635163-1.6508484-1.48073197-1.80508423-.12170029-.0208435-.25152206-.0208435-.37728119-.0208435h-3.0831604c-.02028274-.07089234-.0405693-.13757325-.06490707-.20428468-.29209137-.81292724-.84786988-1.3006897-1.67951203-1.45074463-.02434158-.0041809-.04462432-.01669311-.0689659-.02502441zm-.24746322 3.3600769c.649086.0041504 1.18864059-.53363037 1.19269561-1.20062255.00405884-.6628418-.52332687-1.21313477-1.17241287-1.22146607-.65719986-.0041809-1.19675445.53778076-1.19675445 1.20895386-.00405503.6670227.52332687 1.20895386 1.1764717 1.21313476zm-5.1642971-.73788452h3.1115589c.31642914 1.18395996 1.2697754 1.6716919 2.0405655 1.6758728.94929123.0083313 1.60649109-.50860595 2.0811348-1.6758728h3.12372588c.5517273 0 .89655304.3543396.89655304.91296387v8.67953491h-2.23934936c-.38945007 0-.5557785.17507935-.5557785.57113648v2.28033447h-8.4624672c-.57200622 0-.91277695-.3501587-.91277695-.94213867V10.49957275c0-.59197998.3367138-.93798828.91683388-.93798828zm10.52331733 10.54299927c-.36916733.38354492-.75862122.78375244-1.14401627 1.18395996v-1.18395996h1.14401627z"/>
  </g>
</svg>
