<svg xmlns="http://www.w3.org/2000/svg" width="30" height="30" viewBox="0 0 30 30">
  <g>
    <g>
      <g opacity="0">
        <path fill="rgb(66,97,255)" fill-rule="evenodd" d="M5 0h20c2.75957512 0 5 2.24042488 5 5v20c0 2.75957512-2.24042488 5-5 5H5c-2.75957512 0-5-2.24042488-5-5V5c0-2.75957512 2.24042488-5 5-5z"/>
      </g>
    </g>
    <g>
      <path fill="rgb(31,35,60)" fill-rule="evenodd" d="M15.08366013 10.6285827H10.9128268c-.22239584 0-.30625.08020834-.30625.30625v2.4609375c0 .2078125.08385416.29166667.29166666.29166667h1.10833334c.22604166 0 .30625-.0765625.30625-.30260417v-.78020833c.00364583-.1859375.08020833-.26979167.26614583-.2734375.459375-.00364583.91875-.00364583 1.38177083 0 .18958334 0 .2734375.09114583.2734375.28072917v6.3c0 .196875-.08385416.284375-.284375.28802083-.1859375.00364583-.371875 0-.56145833.00364583-.17135417.00364584-.25520833.08020834-.25520833.2515625-.00364584.39739584-.00364584.79114584 0 1.18854167 0 .175.0875.25885417.2625.25885417h3.37604166c.175 0 .25885417-.0875.2625-.2625.00364584-.39010417.00364584-.78385417 0-1.17395834 0-.17864583-.08385416-.25885416-.25885416-.2625-.1859375-.00364583-.371875 0-.56145834 0-.19322916-.00364583-.28072916-.0875-.28072916-.27708333v-6.31458333c0-.18958334.08385416-.27708334.27708333-.28072917.45572917-.00364583.91145833-.00364583 1.3671875 0 .19322917 0 .2734375.08385417.27708333.27708333.00364584.25885417 0 .51770834 0 .78020834 0 .21875.08385417.29895833.2953125.29895833h1.07916667c.25885417 0 .328125-.07291667.328125-.33541667v-2.39166666c0-.25885417-.07291667-.328125-.33541667-.328125-1.378125-.00364584-2.75625-.00364584-4.13802083-.00364584z"/>
      <path fill="rgb(31,35,60)" fill-rule="evenodd" d="M10.9018893 8.2223327c.065625.04375.1421875.08020834.196875.13854167.11666666.12395833.1421875.2734375.07291666.43020833-.07291666.16770834-.2078125.2515625-.38645833.2515625-.57239583.00364584-1.1484375 0-1.72083333 0h-.16041667v1.771875c0 .29895834-.09114583.459375-.30260417.51770834-.2078125.05833333-.37552083-.03645834-.51770833-.29166667v-2.515625c.065625-.13489583.1640625-.23697917.29895833-.29895833.8421875-.00364584 1.68072917-.00364584 2.51927084-.00364584z"/>
      <path fill="rgb(31,35,60)" fill-rule="evenodd" d="M22.08366013 11.03691604c-.04375.065625-.08020833.1421875-.13854167.196875-.12395833.11666666-.2734375.1421875-.43020833.07291666-.16770833-.07291666-.2515625-.2078125-.2515625-.38645833v-1.88125h-1.771875c-.29895833 0-.459375-.09479167-.51770833-.30260417-.05833334-.2078125.03645833-.37552083.29166666-.51770833h2.515625c.13489584.065625.23697917.1640625.29895834.29895833.00364583.8421875.00364583 1.68072917.00364583 2.51927084z"/>
      <path fill="rgb(31,35,60)" fill-rule="evenodd" d="M8.08730596 19.40410354c.04739584-.06927084.0875-.14947917.14947917-.2078125.12760417-.11302084.28072917-.13125.43385417-.06197917.16041666.07291667.23697916.2078125.23697916.3828125v1.88125h1.771875c.29895834 0 .45572917.09114583.51770834.30260417.05833333.20416666-.03645834.37552083-.29166667.51770833h-2.515625c-.13489583-.065625-.23697917-.1640625-.29895833-.29895833-.00364584-.83854167-.00364584-1.67708334-.00364584-2.515625z"/>
      <path fill="rgb(31,35,60)" fill-rule="evenodd" d="M19.2690768 22.21868687c-.06927084-.04739583-.14947917-.0875-.2078125-.14947917-.11302084-.12760416-.13125-.27708333-.06197917-.43385416.07291667-.16041667.2078125-.23697917.3828125-.23697917h1.88125V19.6301452c0-.29895833.09114583-.45572916.30260417-.51770833.2078125-.05833333.37552083.03645833.51770833.29166667v2.515625c-.065625.13489583-.1640625.23697916-.29895833.29895833h-2.515625z"/>
      <path fill="rgb(31,35,60)" fill-rule="evenodd" d="M15.08366013 10.6285827h4.14166667c.2625 0 .33541666.06927084.33541666.328125v2.39166667c0 .2625-.07291666.33541667-.328125.33541667H18.1534518c-.21510417 0-.2953125-.08020834-.2953125-.29895834v-.78020833c-.00364584-.19322917-.08385417-.2734375-.27708334-.27708333-.45572916-.00364584-.91145833-.00364584-1.3671875 0-.18958333 0-.27708333.09114583-.27708333.28072916v6.31458334c0 .1859375.0875.2734375.28072917.27708333.1859375.00364583.371875 0 .56145833 0 .17864583.00364583.25885417.08385417.25885417.2625.00364583.39010417.00364583.78385417 0 1.17395833 0 .175-.0875.2625-.2625.2625h-3.37604167c-.175 0-.2625-.0875-.2625-.25885416-.00364583-.39739584-.00364583-.79114584 0-1.18854167 0-.16770833.0875-.24791667.25520833-.2515625.1859375-.00364583.371875 0 .56145834-.00364583.196875-.00364584.284375-.0875.284375-.28802084v-6.3c0-.18958333-.08385417-.28072916-.2734375-.28072916-.459375-.00364584-.91875-.00364584-1.38177084 0-.1859375 0-.2625.0875-.26614583.2734375-.00364583.25885416 0 .51770833 0 .78020833 0 .22239583-.08020833.30260417-.30625.30260417H10.9018893c-.20416667 0-.29166667-.08385417-.29166667-.29166667v-2.4609375c0-.22239583.08020833-.30625.30625-.30625 1.3890625.00364583 2.778125.00364583 4.1671875.00364583z"/>
    </g>
  </g>
</svg>
